<svg width="74" height="82" viewBox="0 0 74 82" fill="none" xmlns="http://www.w3.org/2000/svg">
<path d="M64.5235 82C63.4165 82 62.3066 81.7903 61.2484 81.3545L39.2133 73.8001C38.302 76.0409 37.0319 78.617 35.3838 81.5961L32.0848 79.7437C33.5986 77.0082 34.7794 74.6147 35.6246 72.5691L17.2646 66.2747C15.6414 65.7181 14.3339 64.5576 13.5818 63.0057C12.8297 61.4539 12.7251 59.701 13.2883 58.0699C13.8542 56.4292 15.0716 55.0629 16.6276 54.3217C18.1462 53.598 19.8374 53.5168 21.3886 54.0927C27.4437 56.3393 30.807 57.611 35.9661 59.6653C37.5202 60.2847 39.6901 61.3988 40.5813 63.9131C41.1674 65.5664 41.1406 67.6014 40.447 70.2016L62.5224 77.7696C62.5627 77.7831 62.603 77.7986 62.6414 77.815C64.8621 78.7494 67.528 77.9049 69.1243 75.7607C70.0193 74.5577 70.3858 73.0773 70.1565 71.5921C69.9272 70.1069 69.131 68.8092 67.9156 67.9376L38.4075 46.7808L5.46421 23.5185C-0.332842 19.4243 -1.74205 11.3433 2.3225 5.504C6.38705 -0.335266 14.4097 -1.75474 20.2067 2.33941C20.2202 2.34908 20.2336 2.35874 20.2461 2.3684L64.3815 35.2801L62.1348 38.3374L18.0195 5.44119C13.9291 2.56745 8.27975 3.57239 5.41432 7.6878C2.54506 11.809 3.53985 17.514 7.63126 20.4032L40.5784 43.6732C40.5823 43.6761 40.5861 43.6781 40.589 43.681L70.1038 64.8426C72.1557 66.3143 73.4997 68.5049 73.8872 71.0114C74.2748 73.5179 73.656 76.0168 72.1461 78.0469C70.2543 80.5873 67.3976 82 64.5235 82ZM19.2868 57.5221C18.9337 57.5221 18.5788 57.6032 18.2421 57.7627C17.5965 58.0699 17.0909 58.6381 16.8559 59.3203C16.6257 59.987 16.6688 60.704 16.9758 61.3379C17.2837 61.9728 17.8181 62.4472 18.4819 62.6743L36.8621 68.9754C37.2794 67.3327 37.335 66.0698 37.0252 65.1944C36.7278 64.3556 36.0189 63.7788 34.578 63.2048C29.5263 61.193 26.3894 60.0035 20.0839 57.6641C19.8259 57.5694 19.5573 57.5221 19.2868 57.5221Z" fill="white"/>
</svg>
