<svg width="33" height="40" viewBox="0 0 33 40" fill="none" xmlns="http://www.w3.org/2000/svg">
<path d="M17.78 33.3711C21.927 33.3711 25.2888 30.0612 25.2888 25.9781C25.2888 21.8951 21.927 18.5851 17.78 18.5851C13.6329 18.5851 10.2711 21.8951 10.2711 25.9781C10.2711 30.0612 13.6329 33.3711 17.78 33.3711Z" stroke="#010068" stroke-width="1.07556" stroke-miterlimit="10" stroke-linecap="round" stroke-linejoin="round"/>
<path d="M17.1444 29.8086C17.6469 29.8086 18.0543 29.4075 18.0543 28.9128C18.0543 28.4181 17.6469 28.017 17.1444 28.017C16.642 28.017 16.2346 28.4181 16.2346 28.9128C16.2346 29.4075 16.642 29.8086 17.1444 29.8086Z" fill="#010068"/>
<path d="M20.4528 28.3159C20.9553 28.3159 21.3626 27.9149 21.3626 27.4201C21.3626 26.9254 20.9553 26.5244 20.4528 26.5244C19.9503 26.5244 19.543 26.9254 19.543 27.4201C19.543 27.9149 19.9503 28.3159 20.4528 28.3159Z" fill="#010068"/>
<path d="M19.9356 31.5048C20.4381 31.5048 20.8454 31.1038 20.8454 30.609C20.8454 30.1143 20.4381 29.7133 19.9356 29.7133C19.4331 29.7133 19.0258 30.1143 19.0258 30.609C19.0258 31.1038 19.4331 31.5048 19.9356 31.5048Z" fill="#010068"/>
<path d="M0.782227 2.80984C6.99454 -1.36681 18.0219 -0.21976 22.3256 9.71863C25.2907 16.5668 21.9545 24.4767 13.6346 27.9035C2.36916 32.5432 -0.0894624 20.0132 10.2701 13.644C12.4647 12.3458 15.0343 11.5993 17.7809 11.5993C25.8466 11.5993 32.385 18.0368 32.385 25.9781C32.385 31.7485 28.9329 36.7246 23.9512 39.0144" stroke="#010068" stroke-width="1.07556" stroke-miterlimit="10" stroke-linecap="square" stroke-linejoin="round"/>
</svg>
