<svg width="68" height="83" viewBox="0 0 68 83" fill="none" xmlns="http://www.w3.org/2000/svg">
<path d="M36.6378 69.4107C45.1832 69.4107 52.1106 62.6253 52.1106 54.255C52.1106 45.8847 45.1832 39.0993 36.6378 39.0993C28.0924 39.0993 21.165 45.8847 21.165 54.255C21.165 62.6253 28.0924 69.4107 36.6378 69.4107Z" stroke="white" stroke-width="2.2163" stroke-miterlimit="10" stroke-linecap="round" stroke-linejoin="round"/>
<path d="M35.3274 62.1079C36.3628 62.1079 37.2022 61.2857 37.2022 60.2715C37.2022 59.2573 36.3628 58.4351 35.3274 58.4351C34.292 58.4351 33.4526 59.2573 33.4526 60.2715C33.4526 61.2857 34.292 62.1079 35.3274 62.1079Z" fill="white"/>
<path d="M42.1452 59.0476C43.1806 59.0476 44.02 58.2254 44.02 57.2112C44.02 56.1971 43.1806 55.3749 42.1452 55.3749C41.1098 55.3749 40.2704 56.1971 40.2704 57.2112C40.2704 58.2254 41.1098 59.0476 42.1452 59.0476Z" fill="white"/>
<path d="M41.0791 65.5848C42.1145 65.5848 42.9539 64.7627 42.9539 63.7485C42.9539 62.7343 42.1145 61.9121 41.0791 61.9121C40.0437 61.9121 39.2043 62.7343 39.2043 63.7485C39.2043 64.7627 40.0437 65.5848 41.0791 65.5848Z" fill="white"/>
<path d="M1.61182 6.76026C14.4129 -1.80188 37.136 0.549571 46.0042 20.9233C52.1142 34.9619 45.2396 51.1774 28.0956 58.2022C4.88186 67.7136 -0.184391 42.0272 21.1626 28.9703C25.6848 26.309 30.9798 24.7785 36.6394 24.7785C53.2596 24.7785 66.7326 37.9755 66.7326 54.2551C66.7326 66.0844 59.6193 76.2856 49.3539 80.9796" stroke="white" stroke-width="2.2163" stroke-miterlimit="10" stroke-linecap="square" stroke-linejoin="round"/>
</svg>
