<svg width="148" height="82" viewBox="0 0 148 82" fill="none" xmlns="http://www.w3.org/2000/svg">
<mask id="mask0_4174_1235" style="mask-type:alpha" maskUnits="userSpaceOnUse" x="0" y="0" width="148" height="82">
<path d="M110.177 47.1794C110.165 46.7203 110.307 46.2486 110.156 45.9197C109.914 45.581 109.583 45.7644 109.416 45.5516C109.34 45.1486 109.485 44.7273 109.372 44.362C108.98 44.0695 108.827 44.5677 108.527 44.5187C108.33 44.208 108.57 43.8455 108.4 43.5362C108.104 43.5236 107.922 43.742 107.687 43.8455C107.59 43.6888 107.656 43.5292 107.64 43.3766C107.626 43.2311 107.692 43.0505 107.462 42.9946C107.198 43.01 107.123 43.3193 106.812 43.3557C106.819 43.0435 106.827 42.737 106.835 42.3591C106.476 42.5523 106.189 42.7062 105.888 42.8686C105.791 42.4837 105.96 42.096 105.787 41.6859C105.522 41.9071 105.321 42.0764 105.017 42.3311C105.03 41.7503 105.042 41.273 105.055 40.6936C104.737 40.9427 104.521 41.1121 104.211 41.3542C104.231 40.4571 104.25 39.6817 104.269 38.8391C103.858 39.0967 103.754 39.5431 103.278 39.6999C103.31 38.3017 103.343 36.9273 103.375 35.5095C102.726 35.2548 102.1 35.3891 101.549 35.3513C101.049 35.5977 100.966 36.1673 100.467 36.3296C100.33 36.0665 100.612 35.6676 100.153 35.5193C99.2479 36.4864 98.3373 37.4465 97.4399 38.4193C96.5352 39.399 95.6422 40.3913 94.7389 41.3836C95.0518 41.5754 95.3925 41.385 95.6819 41.6327C95.275 42.152 94.6596 42.5033 94.3923 43.1149C94.5906 43.2871 94.8858 43.1149 95.1032 43.3053C95.0327 43.8539 94.4349 44.0709 94.1852 44.5187C94.4393 44.6713 94.855 44.5229 94.9064 44.9638C94.6435 45.2493 94.3659 45.5432 93.9268 45.8386C93.9385 45.3151 93.9488 44.905 93.9561 44.5495C93.7182 44.299 93.42 44.4697 93.1586 44.25C93.1674 43.8455 93.1792 43.3851 93.188 43.0086C92.9075 42.6531 92.5594 42.6573 92.2054 42.5747C92.2186 42.0344 92.2304 41.5208 92.2407 41.0393C91.944 40.8546 91.6106 40.8518 91.4314 40.5662C91.4637 39.2002 91.4828 37.8174 91.5342 36.4346C91.5548 35.886 91.4343 35.3681 91.3198 34.8237C90.6912 34.8265 90.0993 34.6781 89.525 34.8797C89.4795 34.9804 89.4207 35.0504 89.4192 35.1204C89.3781 36.6837 89.3429 38.2485 89.3062 39.8147C89.5691 40.0134 89.8217 40.2051 90.1419 40.4473C90.1286 41.0141 90.114 41.6313 90.1007 42.2318C90.4562 42.3675 90.8175 42.3395 91.0143 42.6321C91.0657 43.0939 90.935 43.5628 91.0525 43.9729C91.3212 44.1408 91.6135 43.9757 91.7986 44.187C91.8691 44.8042 91.7193 45.4285 91.8265 46.0037C92.0747 46.2025 92.3699 46.0345 92.6108 46.2668C92.599 46.7665 92.5652 47.3109 92.5799 47.854C92.5946 48.39 92.4228 48.9401 92.6387 49.4201C92.9265 49.6609 93.1924 49.5377 93.4465 49.5069C93.5346 49.6147 93.4832 49.7784 93.6653 49.8694C94.1661 49.8806 94.7081 49.8918 95.2457 49.903C95.5629 49.6399 95.8655 49.3908 96.1049 49.0856C95.7392 48.7791 95.4028 49.2508 94.9739 49.0115C95.6158 48.327 96.2106 47.693 96.8216 47.0408C96.5161 46.9303 96.2415 46.8309 95.958 46.7273C96.265 46.2724 96.851 46.0303 97.0067 45.504C96.9508 45.1709 96.5484 45.3291 96.4339 45.0562C96.7966 44.6349 97.1653 44.2066 97.5369 43.7727C97.2578 43.5894 96.8701 43.8063 96.6835 43.4452C98.1728 41.9435 99.5196 40.3031 101.163 38.688C101.137 39.8315 101.113 40.7944 101.094 41.7559C101.094 41.7783 101.116 41.8049 101.135 41.8217C101.217 41.8917 101.17 41.7391 101.204 41.8595C101.423 41.6929 101.638 41.5292 101.949 41.2912C101.927 42.2444 101.908 43.0631 101.887 43.9631C102.175 43.6258 102.397 43.3655 102.723 42.982C102.704 43.8175 102.688 44.4893 102.672 45.2143C103.19 44.9414 103.171 44.3424 103.683 44.0121C103.667 44.6839 103.654 45.2493 103.641 45.8554C104.026 45.5754 104.03 45.0954 104.488 44.8112C104.475 45.3725 104.465 45.833 104.453 46.3312C104.836 46.0583 104.842 45.5782 105.308 45.2885C105.296 45.805 105.286 46.2081 105.276 46.6461C105.726 46.3326 105.828 45.8372 106.199 45.4985C106.321 45.9533 106.142 46.3886 106.299 46.8449C106.552 46.5286 106.76 46.2654 107.082 45.8637C107.067 46.5006 107.056 46.975 107.044 47.5279C107.438 47.3221 107.467 46.9176 107.893 46.7987C107.875 47.5545 107.858 48.2893 107.838 49.1388C108.213 48.8295 108.479 48.6112 108.792 48.3536C108.856 49.3068 108.699 50.2109 108.805 51.0661C109.06 51.255 109.356 51.0871 109.56 51.2998C109.583 51.5098 109.535 51.7673 109.805 51.9016L110.893 51.924C110.91 51.2536 110.937 50.0612 110.952 49.4034C110.678 49.1038 110.409 48.8127 110.152 48.5342C110.162 48.0667 110.188 47.6231 110.177 47.1794Z" fill="#14152D"/>
<path d="M125.938 51.7966C125.545 51.5741 125.437 51.1038 125.119 50.7763C125.006 50.9345 124.893 51.0926 124.782 51.248C124.464 50.9121 124.365 50.4348 123.93 50.2263C123.884 50.2347 123.849 50.2305 123.834 50.2459C123.764 50.3131 123.699 50.3858 123.607 50.4824C123.301 50.0331 123.007 49.6007 122.718 49.1752C122.512 49.1626 122.426 49.4229 122.159 49.3459C121.785 48.7637 121.393 48.1493 121.006 47.5418C120.775 47.6034 120.791 47.8735 120.53 47.8833C119.972 46.9624 119.405 46.0247 118.896 45.1877C118.604 44.9946 118.437 45.2409 118.205 45.1121C117.793 44.4305 117.166 43.8637 116.517 43.3304C116.579 43.2241 116.613 43.1527 116.658 43.0883C117.755 41.4816 118.861 39.8804 119.948 38.2667C120.158 37.956 120.459 37.6606 120.396 37.1806C119.809 37.168 119.242 37.1568 118.701 37.1442C118.543 37.007 118.425 36.9063 118.316 36.8125C118.062 36.8069 117.818 36.8013 117.484 36.7943C116.469 38.2765 115.476 39.7265 114.483 41.1764C114.831 41.4074 115.166 41.2142 115.555 41.1289C115.141 41.7419 114.777 42.2793 114.44 42.7762C113.969 42.7664 113.565 42.758 113.148 42.7482C113.013 42.2415 113.202 41.7405 113.061 41.2534C112.801 41.3346 112.568 41.4144 112.284 41.2212C112.303 40.3717 112.324 39.4927 112.346 38.5746C111.913 38.6991 111.761 39.0896 111.365 39.2366C111.377 38.7579 111.406 38.3156 111.391 37.8748C111.377 37.4185 111.529 36.9482 111.309 36.4766C110.993 36.4696 110.695 36.464 110.418 36.4584C110.318 36.324 110.24 36.219 110.199 36.1631C108.827 36.0889 108.827 36.0889 108.331 36.3072C108.306 37.3485 108.282 38.4094 108.257 39.4731C108.727 39.3892 108.834 38.9525 109.221 38.5886C109.203 39.3458 109.188 39.9798 109.174 40.618C109.516 40.5774 109.718 40.4067 109.961 40.2709C110.08 40.7468 109.859 41.2002 110.015 41.4886C110.325 41.7741 110.562 41.5459 110.77 41.6019C110.855 42.0386 110.686 42.4599 110.833 42.8196C111.139 43.0113 111.49 42.8098 111.748 43.0757C111.736 43.553 111.726 44.0456 111.717 44.3983C111.844 44.9092 112.305 44.9372 112.525 45.2969C112.506 46.1198 112.486 47.003 112.465 47.8596C112.75 48.1703 113 48.4432 113.274 48.7413C113.26 49.3767 113.245 50.0247 113.232 50.5874C113.445 50.9443 113.794 50.9149 114.038 51.0688C114.255 51.2186 114.11 51.8134 114.459 51.9856C114.761 52.0556 115.164 52.0262 115.533 52.022C115.361 51.4089 115.683 50.5384 115.493 49.9646C115.289 49.7434 114.929 49.7392 114.753 49.4257C114.687 48.7161 114.837 47.9617 114.727 47.2031C114.393 46.9708 114.022 46.7847 113.834 46.3942C113.868 46.0037 113.79 45.588 113.916 45.2101C115.508 44.9484 116.598 45.5558 117.343 46.8266C117.673 47.3907 118.028 47.9421 118.325 48.4194C118.639 48.6461 118.958 48.4782 119.218 48.6909C119.653 49.4495 120.145 50.2193 120.662 50.9009C120.898 50.9863 121.016 50.7399 121.216 50.8827C121.355 51.1388 121.568 51.3698 121.877 51.5979C122.216 51.6049 122.593 51.6133 122.966 51.6203C122.972 51.7365 122.975 51.8078 122.98 51.91C123.439 51.9198 123.902 51.9296 124.251 51.9366C124.523 52.0206 124.536 52.2403 124.836 52.2683C125.127 52.2683 125.528 52.3271 125.907 52.2347C126.079 52.3327 125.822 52.4698 125.977 52.5888C126.274 52.607 126.613 52.7176 126.826 52.3089C126.66 52.0626 126.487 51.8078 126.322 51.5643C126.143 51.6105 126.15 51.8162 125.938 51.7966Z" fill="#14152D"/>
<path d="M49.0865 43.364C48.778 42.6446 48.0819 42.2122 47.4944 41.6985C47.5355 41.5907 47.5546 41.5152 47.5913 41.448C47.9556 40.7846 48.3697 40.152 48.8162 39.5347C49.298 38.8671 49.3773 38.1855 48.9793 37.4143C48.6767 36.8293 48.192 36.429 47.7969 35.9825C46.3737 35.5431 42.42 35.3401 41.6518 35.6578C41.5284 36.2737 41.2641 47.2885 41.3566 47.9813C41.5534 48.2935 41.9735 48.2669 42.2099 48.4572C42.2834 48.7511 42.1585 49.0226 42.3142 49.262C42.815 49.4761 43.6786 49.5307 44.8008 49.4159C44.6759 49.3544 44.5658 49.2984 44.344 49.1878C45.6085 49.143 46.7776 49.325 47.9262 49.003C47.7588 48.8869 47.6001 48.7763 47.4165 48.649C48.6106 48.1521 49.7503 47.6594 50.1777 46.3662C50.5802 45.1457 50.4201 44.0457 49.5829 43.0337C49.3773 43.1527 49.392 43.427 49.0865 43.364ZM43.8784 37.6047C44.6744 37.6215 45.4294 37.6369 46.1843 37.6537C47.136 38.4584 47.208 39.7349 46.3165 40.4081C45.9566 40.6796 45.5469 40.8909 45.0534 40.8783C44.6083 40.8672 44.2045 41.0043 43.7932 41.259C43.8211 40.054 43.8476 38.8741 43.8784 37.6047ZM47.8483 45.6916C46.8775 47.0744 45.4514 46.8099 44.0414 46.8071C43.1573 46.6797 42.8811 45.8931 42.8518 45.7518C42.8723 44.8546 42.8944 43.9253 42.9178 42.9344C44.2764 42.8392 45.5968 42.9428 46.8144 43.2423C47.0655 43.5432 47.089 43.8091 47.1801 44.0457C47.4503 44.3508 48.0437 44.3396 48.0598 44.954C47.9952 45.1793 47.91 45.4747 47.8483 45.6916Z" fill="#14152D"/>
<path d="M75.688 48.015C75.5617 47.409 75.8158 46.8071 75.5485 46.1801C74.7158 46.5566 73.955 46.9877 73.0869 47.1654C73.2309 47.5951 73.6495 47.3656 73.9006 47.5153C71.1996 48.3061 68.8688 47.5377 66.5688 46.029C66.485 46.0206 66.2706 45.9982 66.0782 45.9786C65.3424 45.4299 64.9796 44.6699 64.6154 43.91C64.2129 43.679 63.8737 43.3879 63.5917 43.0114C63.6049 42.4684 63.6166 41.9225 63.6284 41.4131C63.4183 41.0044 62.9469 40.8098 62.9102 40.3508C63.0673 39.9127 63.2259 39.476 63.3728 39.0687C63.2259 38.7804 62.9366 38.6083 62.9733 38.2863C63.2553 37.9434 63.6783 37.7195 63.8898 37.3626C63.8267 37.1317 63.5931 37.0505 63.6078 36.842C63.6504 36.8084 63.6871 36.7664 63.7327 36.744C65.479 35.886 67.2693 36.033 69.023 36.6544C70.1113 37.0407 71.2099 37.413 72.2645 37.9001C72.7462 38.1226 73.2705 38.3437 73.8786 38.5117C73.9359 37.7517 73.9638 37.0603 73.9256 36.4193C73.7023 36.1058 73.4497 36.1128 73.1912 36.2163C72.9386 35.8916 72.5714 35.7825 72.2204 35.6495C71.5154 35.3822 70.7957 35.1484 70.0907 34.8769C69.2903 34.5704 68.4399 34.3856 67.613 34.1421C66.6554 33.8594 65.6655 33.9574 64.6888 33.9196C64.2776 33.9042 63.8707 33.9168 63.4844 34.0679C63.4448 34.0833 63.4198 34.1309 63.3831 34.1673C63.436 34.2681 63.4933 34.3787 63.5682 34.5214C63.0453 34.8125 62.3579 34.8391 61.9937 35.3654C62.142 35.5599 62.2625 35.7195 62.4828 36.0092C62.1347 36.2765 61.8028 36.5312 61.484 36.7748C61.5839 37.0197 61.8791 37.1079 61.8835 37.3374C61.7337 37.7727 61.324 38.0246 61.2402 38.4655C61.4194 38.7398 61.7381 38.9428 61.7939 39.336C61.5252 39.6496 61.5354 40.0876 61.4091 40.3885C61.4121 40.9372 61.8659 41.1415 62.1362 41.546C62.1332 41.6706 62.1435 41.8539 62.1229 42.0317C62.0524 42.6335 62.1553 43.2255 62.2669 43.8092C62.3227 44.1031 62.3491 44.439 62.6032 44.6699C63.317 45.318 63.9207 46.05 64.4626 46.8309C64.583 47.0031 64.7094 47.1724 64.8489 47.3306C65.2587 47.7883 65.7947 48.1046 66.2941 48.4587C66.77 48.3299 67.0094 48.7176 67.3472 48.8939C67.5381 48.9933 67.7202 49.1137 67.9214 49.1837C68.9363 49.5294 69.9307 49.9059 71.0116 50.0962C72.285 50.3215 73.482 50.1312 74.7422 49.9296C74.588 49.7925 74.4719 49.6903 74.3383 49.5713C75.0859 49.283 75.9039 49.1767 76.4826 48.5944C76.2344 48.2851 75.8202 48.2963 75.688 48.015Z" fill="#14152D"/>
<path d="M58.7245 47.1163C58.068 47.0911 57.41 47.0981 56.755 47.0687C56.1102 47.0393 55.4566 47.1149 54.828 46.9623C54.7267 45.0939 54.8794 43.5907 54.8794 43.5907L55.7959 43.6047C55.7959 43.6047 58.2795 43.6579 59.4457 43.6817C59.6204 43.5991 59.4692 43.4507 59.6674 43.3849C59.8628 43.329 60.1521 43.4717 60.4371 43.2828C60.5031 42.7145 60.5355 42.1267 60.4679 41.5878C60.2388 41.2729 59.9436 41.3443 59.6792 41.3387C58.3103 41.3037 56.943 41.2813 55.5741 41.2463C55.3656 41.2407 55.132 41.3093 54.9631 41.1344C54.8603 40.8796 55.016 40.6053 54.8589 40.352C54.5725 40.4584 54.289 40.5647 53.96 40.6865C53.9762 39.9867 53.9997 39.3625 54.0026 38.7383C54.0055 38.1252 54.0863 37.5108 53.9806 36.8572C54.2567 36.8628 54.5269 36.8684 54.7972 36.874C56.0838 36.9006 57.3689 36.93 58.6555 36.9524C58.8303 36.9552 59.0579 37.0181 59.1035 36.713C58.8685 36.5675 58.6217 36.4149 58.4117 36.2833C58.1723 35.7823 58.5424 35.2462 58.1532 34.7704C57.6347 34.7592 57.0942 34.748 56.5053 34.7354C56.426 34.8012 56.307 34.9005 56.1836 35.0041C55.4669 34.9887 54.756 34.9733 54.0966 34.9593C53.891 35.0307 53.8645 35.2504 53.6442 35.242C53.1008 35.2658 52.5309 35.1805 51.986 35.2532C51.8259 36.3141 51.7525 41.07 51.8641 41.5585C52.1006 41.8566 52.3238 41.4157 52.5956 41.6382C52.5809 42.2373 52.5676 42.8601 52.553 43.4829C52.5383 44.0833 52.5251 44.6824 52.5104 45.2828C52.4957 45.9084 52.4678 46.534 52.4707 47.1611C52.4722 47.7741 52.3606 48.3927 52.5045 49.0239C55.1643 49.0799 57.764 49.1359 60.3622 49.1905C60.5076 49.1933 60.6265 49.1401 60.7763 48.975C60.813 48.4333 60.9482 47.8273 60.7396 47.2199C60.0332 47.0883 59.3752 47.1429 58.7245 47.1163Z" fill="#14152D"/>
<path d="M89.5691 48.7874C89.5911 47.8343 89.6132 46.8825 89.6337 45.9896C89.3517 45.788 89.0565 45.9546 88.8685 45.7461C88.7877 45.1862 88.9449 44.6138 88.8333 44.0777C88.5895 43.8944 88.2972 44.0497 88.0989 43.8636C87.955 43.2646 88.2414 42.6277 88.0093 42.0987C87.7611 41.8202 87.391 42.0147 87.2808 41.8342C87.0708 41.5318 87.1472 41.2911 87.1501 41.063C87.1677 39.9937 87.1942 38.9244 87.2221 37.8551C87.2441 37.0335 87.1765 36.2008 87.5687 35.3834C87.0811 35.3736 86.6522 35.3638 86.1881 35.354C86.0354 35.7179 85.9076 36.065 85.9061 36.4695C85.8973 37.8005 85.8562 39.1301 85.818 40.4597C85.8121 40.6585 85.8826 40.8782 85.6843 41.0854C85.0293 41.0714 84.3493 41.0574 83.7838 41.0448C83.5062 41.1204 83.4901 41.3471 83.2933 41.3667C82.1888 41.2085 81.0902 41.4437 79.9534 41.4647C79.9754 40.5311 79.9945 39.6816 80.0151 38.8334C80.2031 38.7242 80.3749 38.6445 80.5218 38.5339C80.6922 38.4051 80.8596 38.2652 80.9462 38.065C81.0491 36.3785 81.0491 36.3785 80.6966 36.0174C80.4586 35.9418 80.2824 36.1308 80.0562 36.1266C79.805 36.121 79.5789 36.0538 79.3424 35.9852C79.1265 35.9222 78.9047 35.9516 78.6829 36.2847C78.6653 37.0615 78.6433 37.9629 78.6213 38.9202C78.3187 38.804 78.1043 38.7214 77.8443 38.6221C77.7885 41.0084 77.7342 43.3471 77.6798 45.6789C77.8766 45.9476 78.2923 45.9378 78.4935 46.3675C78.4714 47.2884 78.448 48.3227 78.423 49.3906C78.8915 49.4368 79.2146 49.6775 79.4966 49.8875C80.0959 49.9001 80.466 49.6999 80.6922 49.301C80.701 48.653 80.7891 47.8595 80.7024 47.1163C80.3896 46.8573 79.9872 46.9231 79.8256 46.646C79.8506 45.6047 79.8741 44.5928 79.899 43.5249C80.3 43.5515 80.6598 43.4941 80.9066 43.1638C82.5222 43.4535 84.1143 43.0308 85.6505 43.1526C85.8253 43.4493 85.6447 43.718 85.8239 43.8776C86.0662 44.0315 86.3585 43.8678 86.6008 44.1505C86.5891 44.6488 86.5758 45.2142 86.5641 45.7321C86.8241 45.9364 87.1178 45.7684 87.3572 46.0008C87.3484 46.3703 87.3176 46.786 87.3352 47.1988C87.3543 47.6243 87.1633 48.0806 87.4497 48.4291C87.7141 48.6138 87.999 48.4543 88.2047 48.625C88.3633 48.9861 88.1048 49.4032 88.3545 49.7475C89.0227 49.7615 89.6704 49.7755 90.3416 49.7895C90.4048 49.5558 90.6839 49.3892 90.4283 49.1457C90.2212 48.9092 89.7909 49.1359 89.5691 48.7874Z" fill="#14152D"/>
<path d="M37.845 37.6313C37.6702 37.4549 37.6893 37.2828 37.6541 37.0631C36.1839 36.1239 34.583 35.7628 32.8381 36.1183C32.537 36.4598 32.1948 36.6418 31.8041 36.7901C31.199 37.0183 30.6306 37.3136 30.0887 37.6789C28.736 38.5928 27.9223 39.8287 27.4406 41.3109C27.1835 42.1016 27.2394 42.9078 27.2291 43.7098C27.2144 44.8491 27.5228 45.9309 28.1764 46.8771C29.2074 48.3705 30.5587 49.4845 32.4474 49.9282C32.8132 50.0136 33.2141 49.9436 33.4902 50.1745C33.687 50.1172 33.5064 49.959 33.7135 49.896C34.4846 49.9254 35.3188 49.8918 36.1677 49.5517C35.9885 49.4356 35.8152 49.3922 35.7315 49.2032C36.3322 48.9387 37.0078 48.7917 37.5116 48.2697C37.4205 48.0178 37.0798 48.0457 37.1004 47.7532C37.7143 47.2032 38.3884 46.6657 38.7086 45.8666C38.4942 45.5363 38.3914 45.1934 38.3179 44.8547C38.4854 44.271 38.7923 43.7252 38.7629 43.1191C38.7306 42.4417 38.9128 41.8455 39.2976 41.2843C39.5149 40.9666 39.5267 40.6292 39.3989 40.2472C39.0773 39.2646 38.5838 38.3773 37.845 37.6313ZM35.5743 46.2893C35.5362 46.5244 35.8666 46.5986 35.8417 46.8281C35.3717 47.2004 34.7915 47.4131 33.8413 47.5615C33.7282 47.6217 33.8853 47.7644 33.7487 47.8148C31.2725 47.8876 28.9416 46.0863 28.5965 43.6188C28.5362 43.1863 28.5979 42.7594 28.8006 42.3326C29.2677 41.3472 29.9653 40.4767 30.3369 39.4466C30.497 39.0015 30.8465 38.7398 31.2974 38.5494C32.0509 38.2317 32.8161 37.9742 33.6474 37.9952C33.9338 38.0022 34.1688 37.8524 34.5051 37.8384C35.1807 38.0302 35.7888 38.3059 36.297 38.6572C36.4526 38.8895 36.3072 39.0561 36.2984 39.2268C37.8024 40.8042 38.1534 44.0121 35.5743 46.2893Z" fill="#14152D"/>
<path d="M25.1935 37.3935C23.3194 36.5579 21.3234 36.8504 19.3554 36.7147C19.2569 36.6251 19.1424 36.5215 19.0161 36.4081C18.4947 36.4767 17.9395 36.2262 17.4504 36.5341C17.2903 37.4368 17.28 39.0968 17.4284 39.6104C17.7309 39.4803 17.7133 39.038 18.1378 38.9862C18.0908 41.0184 18.0438 43.0465 17.9953 45.1151C18.6107 45.5056 18.6592 46.1522 18.7561 46.7568C18.925 47.8079 18.9103 48.8716 18.8648 49.9339C18.8575 50.1089 18.7987 50.3006 18.9867 50.4868C19.4655 50.6141 19.8092 50.3006 20.1984 50.0963C20.2131 49.4636 20.2278 48.8646 20.241 48.2656C20.2557 47.64 20.2557 47.0143 20.2895 46.3887C20.3203 45.8009 20.2336 45.2019 20.4025 44.5944C21.228 44.6112 22.0167 44.628 22.7966 44.6448C22.9757 44.4461 23.1344 44.2697 23.2783 44.1102C23.904 43.9254 24.4871 43.7141 24.9806 43.3292C26.627 42.0443 26.7518 39.6916 25.5592 38.0527C25.4035 37.8357 25.286 37.6146 25.1935 37.3935ZM23.5691 42.4544C22.5483 42.7483 21.5012 42.495 20.4172 42.544C20.4466 41.2886 20.4745 40.1003 20.5024 38.9008C20.6419 38.7371 20.8461 38.8057 21.0282 38.8071C21.6847 38.8141 22.3398 38.8267 22.9963 38.8476C23.6235 38.8672 24.1654 39.0534 24.5297 39.623C24.2873 40.558 23.7953 41.4257 23.5691 42.4544Z" fill="#14152D"/>
<path d="M89.08 82C88.9258 82 88.7789 81.9832 88.6438 81.9482L88.5527 81.9258L88.4793 81.8698C88.1885 81.6459 88.1929 81.3576 88.1958 81.219C88.1958 81.2008 88.1973 81.1826 88.1958 81.1644C88.1958 81.1574 88.1944 81.1504 88.1944 81.1434C88.0534 81.1546 87.908 81.1812 87.7552 81.2092C87.5275 81.2512 87.2926 81.2946 87.0385 81.2946C86.9768 81.2946 86.9151 81.2918 86.8534 81.2862C86.6742 81.2694 86.4804 81.2624 86.2439 81.2624C86.0647 81.2624 85.8855 81.2666 85.7107 81.2708C85.5404 81.275 85.3715 81.2792 85.2084 81.2792H85.0733L84.9617 81.2064C84.6077 80.9783 84.4932 80.6746 84.4344 80.4128C83.2227 80.2477 82.0345 80.0462 80.8537 79.6039L80.792 79.5801L80.7406 79.5409C80.4689 79.3352 80.3852 79.0384 80.3235 78.8215C80.3235 78.8187 80.322 78.8159 80.3205 78.8131C80.1869 78.7389 80.0297 78.6899 79.855 78.6354C79.7213 78.5934 79.5832 78.5514 79.4437 78.4926C78.3304 78.0279 77.3713 77.3603 76.4842 76.7165C76.4446 76.6871 76.3697 76.6339 76.3139 76.5415C76.0378 76.0881 75.6324 75.72 75.2035 75.3281C74.9274 75.0776 74.6425 74.8172 74.3869 74.5289C73.7348 73.7913 73.1708 72.9698 72.7126 72.0852C72.6993 72.0586 72.6847 72.032 72.6714 72.0054L72.5466 72.109L72.2631 71.7409C72.0046 71.4064 71.8122 71.0537 71.6757 70.6646C71.1543 69.1852 70.5447 67.7002 69.9558 66.2656C69.5754 65.3391 69.1832 64.3818 68.8161 63.4315C68.7735 63.3209 68.7221 63.2117 68.6662 63.0997L68.3226 63.2957L64.8358 54.8309C64.8153 54.9247 64.7962 55.017 64.7771 55.1094C64.7389 55.2914 64.7007 55.4705 64.6581 55.6497C64.4672 56.432 64.288 57.2326 64.1161 58.008C64.0177 58.4489 63.9193 58.8883 63.818 59.3292C63.4728 60.8352 63.1233 62.3398 62.7723 63.8457C62.6797 64.2404 62.5872 64.6351 62.4932 65.0298C62.3478 65.6414 62.198 66.274 62.057 66.8969L62.0511 66.9249C61.822 67.9382 61.5855 68.9865 61.3843 70.0194C61.2712 70.6016 61.1244 71.1069 60.9305 71.5729C61.1581 71.6261 61.4122 71.7241 61.6002 71.9802L61.7133 72.1356L61.6678 72.3189C61.3403 73.6178 60.6088 74.7137 58.7333 76.6619C58.9389 76.7235 59.1901 76.8299 59.3545 77.086L59.5249 77.3505L59.3105 77.5828C57.8374 79.1784 54.4696 80.8943 50.5598 80.8943C49.4759 80.8943 48.4008 80.7641 47.3624 80.5052L47.2317 80.473L46.4797 79.6599C42.7037 78.613 39.7368 76.2042 37.6571 72.5009C37.5955 72.4953 37.5382 72.4841 37.4838 72.4645L37.3516 72.4183L37.2723 72.3077C37.0667 72.0222 36.9389 71.7073 36.8156 71.4036C36.7377 71.2132 36.6643 71.0341 36.5747 70.8661C36.4219 70.5806 36.3338 70.2825 36.256 70.0194C36.2222 69.9032 36.1884 69.7913 36.1517 69.6877C36.1326 69.6891 36.112 69.6905 36.0915 69.6905C35.9916 69.6905 35.8932 69.6625 35.811 69.6093L35.6949 69.5351L30.7351 57.4216L30.9245 56.9569C30.8217 56.7343 30.7321 56.5076 30.6455 56.2879C30.6322 56.2543 30.619 56.2207 30.6058 56.1871L29.7437 59.8751L29.6159 59.9674L29.5219 60.036C29.4059 60.1214 29.2325 60.2515 29.0519 60.3733C28.6656 60.6364 28.4468 61.0143 28.3205 61.6386C27.9269 63.5798 27.4495 65.5351 26.9883 67.4259L26.9546 67.5645C26.8473 68.0068 26.7533 68.4644 26.6638 68.9067C26.5433 69.4987 26.4185 70.1104 26.2555 70.7094C25.7825 72.4407 25.0775 73.8417 24.1023 74.995C23.8203 75.3295 23.5178 75.6444 23.2196 75.9425C23.224 75.9453 23.2284 75.9481 23.2343 75.9509C23.4502 76.0727 23.7454 76.2392 23.8688 76.6157L23.9481 76.8578L23.7601 77.037C22.6218 78.1245 21.3147 78.9517 19.7872 79.5507L20.9886 80.2729L20.1412 80.564C18.5623 81.1056 17.0172 81.3814 15.547 81.3814C14.4396 81.3814 13.3425 81.226 12.285 80.9195L12.1543 80.8817L12.0691 80.7795C11.8796 80.5528 11.862 80.3387 11.8914 80.1749C9.42978 79.6277 7.51017 78.6395 6.03263 77.1588L5.8931 77.0188C4.88703 76.0125 3.84571 74.9712 3.0805 73.7185C2.9865 73.5646 2.86019 73.412 2.72654 73.2511C2.56351 73.0551 2.39608 72.8508 2.25655 72.6129C1.83796 71.8949 1.49135 71.0859 1.20348 70.1496C1.18585 70.151 1.16823 70.1524 1.14913 70.1524C1.03017 70.1524 0.917077 70.1202 0.814266 70.0572L0.689424 69.9816L0.638019 69.85C0.0754993 68.4112 -0.116903 66.9137 0.0681555 65.3993C0.182716 64.4588 0.405962 63.5252 0.620395 62.6225C0.707049 62.2628 0.795172 61.8891 0.875952 61.5252C0.943513 61.2201 1.01842 60.9248 1.09773 60.6126C1.13298 60.4741 1.16823 60.3327 1.20495 60.19L1.32538 59.7057L2.20221 60.0598L3.07316 56.369L3.47412 56.4222C3.55196 56.432 3.62687 56.446 3.69883 56.46C3.78696 56.4768 3.86333 56.4908 3.92795 56.4936L4.75191 52.9918C4.8459 52.5915 4.94284 52.1926 5.03978 51.7923C5.25274 50.9148 5.47305 50.0079 5.65811 49.1135C5.75798 48.6292 5.87695 48.145 5.99151 47.6761C6.14719 47.0435 6.29406 46.4389 6.40128 45.8328C6.39834 45.8328 6.39687 45.8328 6.39394 45.8328C6.16041 45.8328 5.95185 45.7321 5.77414 45.5333L5.72567 45.4801L5.69923 45.4144C5.56558 45.0896 5.68308 44.7565 5.78736 44.4626C5.82701 44.3492 5.8652 44.2415 5.88723 44.1449C6.15894 42.9161 6.4615 41.6746 6.75524 40.4737C6.90946 39.8439 7.06221 39.2141 7.21348 38.5843C7.23111 38.5101 7.22817 38.4065 7.22523 38.2974C7.22376 38.2288 7.2223 38.1602 7.22376 38.0916L7.22817 37.9335L7.32511 37.8327C7.51898 37.4212 7.60416 36.9705 7.69229 36.4947C7.73488 36.2637 7.78041 36.0258 7.83769 35.7879C8.15787 34.4918 8.45015 33.1636 8.73508 31.8802C8.86726 31.2825 8.99945 30.6849 9.13457 30.0873C9.1566 29.9893 9.19185 29.9011 9.22563 29.827C8.84083 28.6065 8.80705 27.3343 9.12282 25.9459C9.35635 24.9143 9.60456 23.8688 9.84249 22.8569C10.0158 22.1263 10.1876 21.3943 10.358 20.6638C10.5475 19.8436 10.734 19.022 10.9191 18.2018C11.2936 16.5447 11.6799 14.8302 12.1014 13.1507C12.2071 12.7294 12.3041 12.2969 12.3966 11.8784C12.5699 11.1003 12.7491 10.3011 12.9958 9.51451L11.768 10.2969L12.0661 9.22199C12.9665 5.98331 14.9404 3.58019 18.0996 1.87407C19.6021 1.0623 22.2561 0.401686 24.0142 0.401686C24.5282 0.401686 24.9365 0.46047 25.2273 0.575237L25.5857 0.716597L25.4844 1.0721C25.4609 1.15327 25.4271 1.22465 25.3874 1.28764C25.5887 1.31003 25.7855 1.32963 25.9808 1.34222C28.2103 1.48918 30.2195 2.119 31.9526 3.21629C32.029 3.26388 32.1142 3.31006 32.1891 3.34925C32.2243 3.36885 32.2581 3.38564 32.286 3.40243L32.3653 3.44583L32.4197 3.51581C32.5519 3.68796 32.5607 3.85311 32.5401 3.97488L32.6782 4.06865C32.9425 4.2464 33.2172 4.43115 33.4889 4.61729C35.2528 5.82095 36.5615 7.47248 37.4897 9.66566C38.2843 11.5425 39.0671 13.4586 39.825 15.3117L40.4139 16.7491C40.8692 17.8617 41.3216 18.9758 41.774 20.0899C42.0824 20.8499 42.3908 21.6099 42.7007 22.3699C42.7771 22.5574 42.8564 22.7422 42.9357 22.9297L42.9475 22.9171L43.2838 23.1942C43.7009 23.5371 43.8316 23.9682 43.9477 24.3475C43.9903 24.4861 44.0299 24.6176 44.0813 24.7324C44.1239 24.8304 44.1694 24.9269 44.2164 25.0249C44.2179 25.0277 44.2194 25.0305 44.2208 25.0333C44.403 24.2481 44.5836 23.4602 44.7643 22.6736L45.0565 21.4041C45.2651 20.4958 45.4751 19.5875 45.6852 18.6805C45.7865 18.241 45.8878 17.8016 45.9877 17.3621C46.2227 16.3334 46.4651 15.2697 46.725 14.2256C46.8763 13.6181 47.01 12.9939 47.1392 12.3893C47.408 11.1311 47.687 9.82942 48.1423 8.57537C48.5359 7.49348 49.1132 6.48157 49.8975 5.50464C49.8328 5.53263 49.7697 5.56342 49.708 5.59421L49.4436 5.73138L49.213 5.54663C49.0148 5.38707 48.9648 5.21352 48.9589 5.09736C48.9443 4.84123 49.1117 4.67188 49.1837 4.5991L49.1998 4.5823C50.6215 2.8384 52.5074 1.52977 54.8015 0.702602C56.1469 0.216939 57.6009 0 59.5176 0C59.9112 0 60.3268 0.00839797 60.8291 0.0265928C61.0641 0.0349904 61.2712 0.099372 61.4548 0.155356C61.518 0.174951 61.5782 0.194544 61.6369 0.20854L61.7765 0.24353L61.8675 0.349901C62.0614 0.576637 62.0673 0.814569 62.0702 0.957329C62.0702 0.964327 62.0702 0.971324 62.0702 0.978322C62.1187 0.999316 62.1745 1.01331 62.2421 1.01891C62.881 1.0707 63.467 1.25125 64.0354 1.4276C64.1455 1.46119 64.2557 1.49618 64.3658 1.52837C64.545 1.58155 64.8446 1.67252 65.0855 1.96784L65.1516 2.04902L65.228 2.44231C65.836 2.66345 66.4103 2.93637 66.9229 3.1813C67.105 3.26807 67.2827 3.35345 67.456 3.43183L67.5177 3.45982L67.5676 3.50461C67.8305 3.74114 67.8717 3.99027 67.8922 4.13023C68.0846 4.26039 68.2829 4.38216 68.4929 4.51092C68.7764 4.68587 69.0687 4.86642 69.3492 5.06936C69.3962 5.10295 69.4432 5.13655 69.4902 5.16874C69.7854 5.37308 70.1497 5.62501 70.2789 6.09947C70.9325 6.45077 71.3643 6.95603 71.7829 7.44309L71.9415 7.62784C72.8991 8.73213 73.889 9.87561 74.4941 11.2486C74.7849 11.9106 75.0596 12.588 75.3254 13.2431C75.4179 13.4712 75.5105 13.7007 75.6045 13.9289C75.8879 14.6217 76.1699 15.3131 76.4534 16.0059C76.869 17.0248 77.2847 18.0423 77.7018 19.0598L78.0793 18.9954L78.2203 19.2921C78.4112 19.691 78.5713 20.1011 78.727 20.4986C78.8415 20.7925 78.959 21.092 79.0883 21.3887L79.3762 21.0878L80.8449 24.6372L81.1665 24.4329L83.0068 28.8794L86.3555 14.4103L86.9283 15.0163C86.9959 15.0877 87.0796 15.1619 87.1721 15.2361C87.388 14.2676 87.6171 13.4432 87.9873 12.637C88.2134 12.1458 88.469 11.5887 88.964 10.9841L89.8144 9.94558L89.7512 11.2612C89.7409 11.4754 89.7174 11.6797 89.688 11.877C90.3005 10.9995 91.0422 10.1863 91.9073 9.44593C92.4889 8.94767 93.1645 8.59077 93.8078 8.27866L94.3439 8.92387C94.2381 9.04284 94.1294 9.16181 94.0222 9.28077C93.9767 9.33116 93.9312 9.38155 93.8856 9.43193C96.7423 7.68383 98.988 7.46409 99.9353 7.46409C100.229 7.46409 100.507 7.48368 100.761 7.52287L100.814 8.29125C101.088 8.27446 101.36 8.26746 101.632 8.26746C103.071 8.26746 104.477 8.50819 105.812 8.98406L107.12 9.45013L106.379 9.63347C106.542 9.68526 106.694 9.73705 106.834 9.78743C106.941 9.82522 107.05 9.86301 107.158 9.8994C107.752 10.1037 108.366 10.3137 108.903 10.7L109.124 10.8595L109.069 11.1185C109.058 11.1716 109.041 11.2178 109.021 11.2598C109.169 11.3312 109.32 11.4026 109.469 11.467C110.049 11.7147 110.537 12.0618 111.008 12.3963C111.102 12.4635 111.196 12.5307 111.291 12.5964C111.306 12.6076 111.324 12.6174 111.341 12.6286C111.687 12.8414 111.781 13.0779 111.764 13.2878C111.772 13.2934 111.779 13.299 111.786 13.3046C113.298 14.3361 114.467 15.7008 115.36 17.4741C115.474 17.7008 115.607 17.9471 115.767 18.2242C116.049 18.7141 116.266 19.2418 116.433 19.838C116.577 20.353 116.793 20.8485 117.022 21.3748C117.122 21.6029 117.225 21.8394 117.321 22.076C117.41 22.2971 117.497 22.5182 117.585 22.7408C117.776 23.2236 117.973 23.7233 118.186 24.2034C118.319 24.5015 118.327 24.7982 118.211 25.1033L119.344 27.8871L119.046 28.0831L119.917 30.2356C120.055 30.1769 120.189 30.1433 120.304 30.1153C120.358 30.1013 120.43 30.0845 120.464 30.0719L120.489 30.0523C120.707 29.8829 120.743 29.6968 120.785 29.3819C120.801 29.2643 120.818 29.144 120.85 29.0194C121.172 27.7835 121.458 26.5127 121.736 25.2852C121.809 24.9605 121.882 24.6344 121.956 24.3097C122.272 22.9227 122.586 21.5343 122.899 20.1473C123.082 19.3313 123.267 18.5168 123.452 17.7008C123.458 17.677 123.464 17.6532 123.472 17.6322C123.427 17.5398 123.354 17.4419 123.273 17.3327C123.107 17.1088 122.899 16.8288 122.836 16.4383L122.824 16.3698L122.836 16.3012C123.075 14.9828 123.367 13.9107 123.745 12.9589C123.729 12.9491 123.711 12.9393 123.693 12.9295C123.498 12.8204 123.172 12.6398 123.096 12.2129L123.078 12.1122L123.11 12.0156C123.582 10.602 124.704 9.04704 126.322 7.73841C126.277 7.758 126.231 7.7762 126.184 7.79579C126.052 7.85038 125.914 7.90776 125.769 7.97354L124.965 8.33324L125.15 7.50607C125.252 7.054 125.559 6.86926 125.742 6.76009C125.775 6.74049 125.807 6.7223 125.836 6.69991C125.921 6.63832 126.005 6.56834 126.093 6.49416C126.199 6.40459 126.309 6.31221 126.434 6.22544C127.953 5.16874 129.678 4.46194 131.561 4.12743C132.334 3.99027 133.115 3.92029 133.885 3.92029C134.452 3.92029 135.025 3.95808 135.59 4.03226C137.445 4.27719 139.182 4.87482 140.901 5.85874C141.324 6.10087 141.406 6.20864 141.553 6.62573C143.279 7.7958 144.438 8.89168 145.301 10.1667C146.222 11.5257 146.799 12.9407 147.058 14.4761L147.152 14.4425L147.296 14.4859C147.601 14.5769 147.801 14.84 147.83 15.1885C147.849 15.4124 147.874 15.6364 147.898 15.8589C147.98 16.6063 148.065 17.3775 147.926 18.1963C147.633 19.9094 147.219 21.6197 146.818 23.2726C146.661 23.9192 146.5 24.5882 146.347 25.2461C146.105 26.293 145.872 27.3609 145.646 28.3938C145.501 29.0614 145.356 29.729 145.206 30.3966C145.168 30.566 145.11 30.7185 145.054 30.8669C145.032 30.927 145.009 30.9858 144.988 31.046L144.861 31.4211L144.46 31.3231C144.279 31.2783 144.142 31.193 144.035 31.1062L139.368 51.1765L138.839 50.8644C138.704 50.7846 138.601 50.6881 138.514 50.5915L135.443 63.8009L135.544 63.6162L136.351 64.0753L136.213 64.7065C136.158 64.957 136.104 65.2089 136.047 65.4595C135.948 65.892 135.853 66.3258 135.757 66.7597C135.528 67.7968 135.29 68.8689 135.029 69.92C134.936 70.2937 134.85 70.6786 134.768 71.0495C134.562 71.9676 134.349 72.918 134.007 73.8347C133.39 75.4862 132.522 76.8383 131.354 77.9663C130.266 79.0188 129.166 79.8096 127.991 80.3835C126.97 80.8831 125.871 81.2456 124.724 81.4612L123.626 81.6683L124.165 80.9573C124.174 80.8061 124.256 80.662 124.387 80.5766C124.461 80.5276 124.536 80.4786 124.613 80.4296C123.795 80.6326 122.93 80.8047 122.026 80.8047C121.95 80.8047 121.874 80.8033 121.797 80.8005C121.571 80.7935 121.336 80.7921 121.11 80.7907C120.289 80.7865 119.44 80.7823 118.607 80.4982L118.299 80.3933L118.315 80.0825C118.321 79.9538 118.356 79.846 118.402 79.7578C118.397 79.7578 118.391 79.7578 118.387 79.7578C118.275 79.7522 118.149 79.7466 118.017 79.72C116.081 79.3226 114.349 78.5794 112.87 77.5115C112.198 77.0244 111.435 76.4282 110.893 75.692C110.412 75.0384 110.011 74.2756 109.627 73.2875C109.473 72.89 109.312 72.5009 109.14 72.0908C109.065 71.9103 108.989 71.7283 108.914 71.5464L108.803 71.279L109.05 71.0635L107.064 66.2237L107.082 66.1131C107.095 66.0277 107.139 65.8696 107.28 65.759L106.127 62.9682L105.989 63.5574L104.344 59.5937C103.958 61.2145 103.587 62.8226 103.225 64.3874C102.942 65.6162 102.658 66.8409 102.37 68.0641L102.306 68.3399L102.014 68.386C101.956 68.3958 101.899 68.4 101.843 68.4C101.645 68.4 101.482 68.3455 101.341 68.2755L100.424 72.165L99.6254 71.8655C99.6239 71.8809 99.621 71.8963 99.6195 71.9117C99.3684 73.5688 98.9542 74.8354 98.3873 75.6766L98.1963 75.9593L97.8659 75.8445C97.6206 75.7592 97.4488 75.6108 97.3092 75.4778C96.8275 76.1972 96.2811 76.9572 95.5527 77.6388L96.4691 77.846L96.3105 78.284C96.1166 78.8201 95.6863 79.1378 95.3397 79.3939L95.2222 79.4807C93.6022 80.7012 91.709 81.5297 89.594 81.9468C89.4075 81.9832 89.2386 82 89.08 82ZM89.641 79.1896C89.6587 79.4247 89.5926 79.6179 89.5118 79.7774C90.8939 79.4611 92.0909 78.9573 93.1366 78.2519C92.9339 78.2463 92.7077 78.2267 92.4727 78.1679L91.5842 77.9439L92.3244 77.4247C93.0764 76.897 93.7505 76.3008 94.3835 75.6038C94.9461 74.9852 95.3558 74.2574 95.7906 73.4876L96.1534 72.8438L96.6131 73.4064C96.6806 73.4904 96.7438 73.566 96.804 73.636C96.9729 73.1951 97.0919 72.7584 97.1653 72.3147C97.2637 71.7185 97.3871 71.0257 97.5956 70.3581L97.6999 70.0222L98.0656 70.06C98.2654 70.081 98.4313 70.1369 98.5767 70.2055L99.5108 66.3258L99.9823 66.4952C100.11 66.5414 100.211 66.6002 100.297 66.6533L102.895 55.4551L103.042 55.3613C103.363 55.1556 103.713 55.0562 104.108 55.0562C104.309 55.0562 104.522 55.08 104.797 55.136L105.027 55.1822L106.402 58.4643C106.434 58.4587 106.47 58.4545 106.508 58.4545H106.81L106.919 58.7232C107.446 60.029 107.996 61.3544 108.526 62.6365C109.221 64.316 109.94 66.0543 110.623 67.7744L110.795 68.2083L110.428 68.3021C110.581 68.6912 110.745 69.0775 110.907 69.4539C111.212 70.1677 111.528 70.9067 111.747 71.6499L111.819 71.8949L111.625 72.0698C111.606 72.0866 111.587 72.1034 111.566 72.116C111.578 72.1468 111.591 72.179 111.604 72.2112C111.731 72.5303 111.861 72.8606 112.026 73.1573C112.101 73.2917 112.173 73.4274 112.246 73.5646C112.7 74.4141 113.129 75.2175 114.051 75.6388C114.161 75.6892 114.233 75.7606 114.282 75.8067C114.289 75.8137 114.296 75.8222 114.304 75.8291C116.06 77.0594 117.854 77.7046 119.781 77.7942C119.939 77.8012 120.054 77.8698 120.129 77.9146C120.145 77.9243 120.161 77.9342 120.18 77.9439L120.543 78.1217L120.302 78.6717C120.684 78.7221 121.07 78.7473 121.454 78.7473C122.799 78.7473 124.204 78.4408 125.751 77.811C127.459 77.1154 128.904 75.9467 130.301 74.1314L131.093 74.4421C131.077 74.5415 131.059 74.6423 131.037 74.7417C131.364 74.1888 131.629 73.5954 131.826 72.9684C132.202 71.7703 132.485 70.5232 132.758 69.3182C132.846 68.9291 132.935 68.54 133.026 68.1523C133.081 67.9186 133.142 67.6848 133.202 67.4511C133.334 66.9403 133.46 66.4504 133.532 65.9605C133.36 65.9563 133.146 65.9256 132.942 65.7688L132.729 65.605L136.808 47.9952L137.286 48.173C137.429 48.2262 137.538 48.3017 137.621 48.3829C137.661 48.2527 137.698 48.124 137.727 47.9952C138.074 46.4892 138.416 44.9833 138.759 43.4759C138.996 42.4332 139.234 41.3919 139.472 40.3492C139.632 39.648 139.796 38.9468 139.959 38.2456C140.109 37.6046 140.259 36.9621 140.406 36.3197C140.516 35.8411 140.623 35.361 140.73 34.8809C140.88 34.2119 141.035 33.5205 141.195 32.8403C141.388 32.0201 141.594 31.1888 141.792 30.3854C141.881 30.0299 141.969 29.6744 142.055 29.3203L142.124 29.0362L142.428 28.9998C142.471 28.9942 142.512 28.9928 142.553 28.9928C142.744 28.9928 142.9 29.046 143.031 29.109C143.116 28.7535 143.201 28.398 143.286 28.0439C143.572 26.8514 143.869 25.6197 144.153 24.4119C144.374 23.463 144.592 22.4972 144.802 21.5623C144.922 21.0304 145.041 20.4986 145.162 19.9667C145.204 19.7778 145.257 19.5903 145.307 19.4083C145.407 19.0444 145.502 18.7001 145.526 18.3614C145.574 17.6658 145.557 16.945 145.538 16.2466C145.533 16.0842 145.529 15.9219 145.526 15.7581C145.52 15.7469 145.511 15.7301 145.501 15.7134C145.495 15.712 145.488 15.712 145.482 15.7106C145.341 15.6924 145.078 15.6574 144.881 15.4054L144.812 15.3173L144.797 15.2081C144.604 13.7987 144.1 12.4817 143.296 11.292C142.913 10.7238 142.383 10.0002 141.682 9.43473C140.761 8.69294 139.741 8.09251 138.648 7.64884C137.441 7.15898 136.104 6.90985 134.673 6.90985C134.22 6.90985 133.747 6.93504 133.268 6.98403C132.127 7.10019 130.941 7.46689 129.747 8.07152C128.86 8.52079 128.076 9.05964 127.417 9.67406C126.568 10.4648 125.963 11.2402 125.566 12.0464C125.515 12.1514 125.454 12.2507 125.397 12.3473C125.284 12.5349 125.206 12.6734 125.187 12.7924C125.215 12.8064 125.246 12.819 125.278 12.833C125.478 12.9211 125.752 13.0429 125.917 13.3648L125.998 13.5244L125.935 13.6909C125.591 14.5979 125.382 15.5412 125.162 16.5405C125.046 17.0654 124.927 17.607 124.785 18.1473C124.89 18.3222 124.958 18.5042 125.02 18.6693C125.077 18.8247 125.131 18.9702 125.208 19.0892C125.432 19.4349 125.394 19.7918 125.327 20.0969C125.081 21.2222 124.812 22.3601 124.554 23.4616L124.495 23.7149C124.2 24.9731 123.902 26.2314 123.601 27.4994L123.195 29.2111L123.099 29.2993C123.015 29.3749 122.933 29.4547 122.847 29.5358C122.626 29.75 122.395 29.9711 122.117 30.1629C121.99 30.251 121.94 30.3266 121.907 30.4862C121.86 30.7143 121.813 30.9424 121.768 31.1706C121.608 31.96 121.443 32.7759 121.23 33.5737C121.216 33.6297 121.205 33.7011 121.194 33.7766C121.15 34.0734 121.082 34.5226 120.594 34.804L120.496 34.8599L120.381 34.8641C120.306 34.8669 120.232 34.8697 120.155 34.8739C120.01 34.8809 119.86 34.8879 119.7 34.8879C119.48 34.8879 119.278 34.8739 119.086 34.8445L118.838 34.8067L117.359 31.2042L117.416 31.0544C117.464 30.9298 117.534 30.8403 117.601 30.7745L116.5 28.0691L116.815 27.8619L115.853 25.5176L115.886 25.3888C115.925 25.2321 116.01 25.1187 116.081 25.0403L114.667 21.5819L114.922 21.3957C113.753 18.1585 111.907 15.8407 109.288 14.3193L109.172 14.2522L109.116 14.1346C109.081 14.059 109.044 13.9457 109.065 13.8113C108.198 13.2417 107.276 12.8414 106.191 12.5614C105.608 12.4117 105.627 11.9862 105.646 11.8588L105.668 11.7203C105.302 11.6097 104.925 11.5299 104.557 11.46C103.945 11.3438 103.299 11.2864 102.635 11.2864H102.55C102.033 11.2906 101.508 11.3452 100.953 11.404C100.767 11.4236 100.577 11.4432 100.382 11.4628L99.1995 11.5761L100.019 10.756C100.114 10.6608 100.213 10.5824 100.311 10.5166C99.6269 10.6034 98.9469 10.7574 98.258 10.9785C96.8627 11.4278 95.6804 12.2073 94.4922 13.0345L93.3863 13.8043L93.8151 12.5642C93.8856 12.3585 93.9782 12.1654 94.0839 11.9848C92.9207 12.9561 92.0204 14.1542 91.3595 15.6056L90.5164 15.3998C90.5164 15.3998 90.5428 15.1227 90.5546 15.0094C90.4312 15.3677 90.3328 15.7204 90.2491 16.0577C89.9965 17.0682 89.7615 18.1025 89.5353 19.1032C89.4354 19.5427 89.3355 19.9807 89.2342 20.4202L88.3706 20.409C88.3662 20.3866 88.3618 20.3642 88.3574 20.3418L85.9193 30.8669L85.348 30.2888C85.2657 30.2049 85.1982 30.1181 85.1453 30.0285C85.1086 30.1951 85.0718 30.3602 85.0366 30.524C84.8471 31.3903 84.668 32.2091 84.3977 33.0223L84.3199 33.2588L84.0658 33.3078C83.8146 33.3568 83.5928 33.382 83.4225 33.382C83.3211 33.382 83.2374 33.3722 83.1669 33.354L83.1199 33.3414L83.0773 33.319C82.7013 33.1272 82.5824 32.8389 82.5045 32.6486C82.4752 32.5786 82.4575 32.5366 82.4414 32.5114C82.3591 32.5408 82.2475 32.5702 82.1182 32.5702C81.9361 32.5702 81.7599 32.5128 81.5954 32.3994L81.4985 32.3322L81.45 32.2273C80.8111 30.8389 80.2442 29.4239 79.6435 27.9263C79.3203 27.1215 78.9913 26.3 78.6462 25.4756L78.4861 26.0354L76.8367 22.0466L76.5092 22.0774L74.8452 18.0409L74.5088 18.1893L74.337 17.7764C74.1079 17.2277 73.8655 16.6735 73.6305 16.136C73.0944 14.9072 72.5407 13.6363 72.0957 12.3501C71.4979 10.623 70.3186 9.28078 69.0687 7.85878C68.9482 7.72162 68.8293 7.58585 68.7088 7.44869C68.6486 7.38011 68.6236 7.36332 68.6178 7.35912C68.3226 7.21636 68.092 7.01482 67.8878 6.83567C67.7057 6.67611 67.5324 6.52355 67.3371 6.43398C67.0448 6.29962 66.8524 6.04769 66.823 5.76077C66.8171 5.71038 66.7863 5.67959 66.5763 5.55923L66.494 5.51164C66.0343 5.24291 65.5496 5.01478 65.0826 4.79504C64.9445 4.73066 64.8109 4.66628 64.6801 4.6047L64.6082 4.56971L64.5538 4.51372C64.3526 4.30518 64.3188 4.07565 64.2983 3.93849C64.2953 3.92309 64.2939 3.90489 64.2909 3.8881L64.1352 3.83211C63.2393 3.50881 62.3126 3.1743 61.3373 3.13511L60.8438 3.11552L60.9202 2.65085C60.929 2.59486 60.9393 2.54448 60.9481 2.4969C60.9628 2.42132 60.9746 2.36113 60.976 2.31634C60.976 2.30655 60.976 2.29675 60.9775 2.28695C60.3724 2.20018 59.7746 2.15679 59.1989 2.15679C57.0722 2.15679 55.0953 2.75442 53.3064 3.93429C53.5002 3.95948 53.6897 4.00147 53.8777 4.06025L54.4094 4.2268L54.1156 4.68027C54.0069 4.84683 53.8557 4.9322 53.7558 4.98819C53.7338 5.00078 53.7103 5.01338 53.6897 5.02738C51.8979 6.25343 50.6876 7.95255 50.0943 10.0771C49.7521 11.3018 49.4656 12.5377 49.1778 13.8015C48.9369 14.8568 48.6769 15.9919 48.3994 17.1437C48.1115 18.3404 47.8457 19.5651 47.5886 20.7491C47.4241 21.5063 47.2538 22.2901 47.079 23.0599C46.7001 24.7338 46.2917 26.5169 45.8438 28.279C45.8306 28.3294 45.8218 28.3952 45.8129 28.4637C45.7777 28.7143 45.7263 29.0936 45.3606 29.3889L45.2739 29.4589L45.1623 29.4799C44.9302 29.5232 44.7085 29.5456 44.4837 29.5456C44.2341 29.5456 43.9785 29.5176 43.7259 29.4631L43.4982 29.4141L41.9458 25.6254C41.8577 25.6184 41.7696 25.596 41.6858 25.5554L41.5316 25.484L40.6636 23.3664C40.06 21.8954 39.4534 20.4174 38.8497 18.9394C38.4752 18.0241 38.1036 17.1074 37.732 16.1906C37.0476 14.5041 36.3397 12.7616 35.6332 11.0513C35.1985 10.0002 34.7917 9.23179 34.3129 8.55998C33.4213 7.30733 32.2566 6.31081 30.8481 5.59841C30.8026 5.57462 30.7541 5.55363 30.7057 5.53124C30.4545 5.41507 30.1417 5.27231 29.9317 4.9476L29.6526 4.51512L29.6629 4.51092C29.3706 4.37376 29.0725 4.2562 28.7846 4.14983C28.1501 3.91469 27.5935 3.75934 27.0867 3.67676C26.9986 3.66276 26.912 3.64737 26.8238 3.63197C26.3994 3.55919 25.9984 3.49201 25.596 3.49201C25.4844 3.49201 25.3742 3.49761 25.2714 3.50881C24.9762 3.5396 24.6854 3.5452 24.4034 3.5494C24.0641 3.55499 23.7425 3.55919 23.4238 3.60818C23.2519 3.63477 23.0727 3.67536 22.8847 3.71875C22.4882 3.80972 22.0388 3.91189 21.5027 3.91189C21.4513 3.91189 21.3999 3.91049 21.347 3.90909L19.9708 3.85871L21.3778 2.97976C20.0795 3.32406 18.7371 3.96228 17.7251 4.75585C17.0774 5.26391 16.5516 5.76637 16.133 6.28142C16.3475 6.14986 16.5766 6.02949 16.8292 5.93292L17.3183 6.60613C16.2079 7.7566 15.4501 9.1968 15.0036 11.0065C14.7348 12.0982 14.4851 13.2165 14.2428 14.297C14.1268 14.819 14.0093 15.3425 13.8903 15.8645L13.7229 16.5979C13.4702 17.7022 13.2103 18.8443 12.9474 19.9654C12.8181 20.514 12.6845 21.0626 12.5508 21.6113C12.426 22.1263 12.2997 22.64 12.1778 23.1564C11.8267 24.6484 11.4728 26.1698 11.0982 27.8059C10.9558 28.4274 10.8192 29.0502 10.6855 29.6618C10.6444 29.8494 10.6033 30.0369 10.5622 30.223C10.5842 30.2328 10.6092 30.244 10.6356 30.2566C10.8001 30.3308 11.0263 30.4316 11.1967 30.6625L11.3083 30.8137L8.44427 43.1932L8.74389 42.8405L9.07288 43.3303C9.32844 43.711 9.24472 44.0525 9.19479 44.2569C8.78061 45.9336 8.38993 47.6467 8.01247 49.3039C7.88322 49.8679 7.75544 50.4305 7.62619 50.9946C7.29279 52.4404 6.85071 54.348 6.37925 56.2795C6.36016 56.3592 6.34988 56.4572 6.33959 56.5608C6.30435 56.9023 6.25588 57.3698 5.78882 57.7113L5.61111 57.8414L5.07943 57.6903L4.07923 61.9409L3.60924 61.7799C3.46971 61.7323 3.35809 61.6665 3.26703 61.6092C3.26556 61.6148 3.26409 61.619 3.26409 61.6246C3.11575 62.3524 2.963 63.0186 2.79557 63.6596C2.49155 64.8269 2.18311 66.3664 2.50183 67.92C2.54148 68.1173 2.59582 68.3119 2.64723 68.5008C2.6487 68.5008 2.65017 68.5008 2.65164 68.5008C2.79851 68.5008 3.01 68.5484 3.17891 68.7723L3.24353 68.8563L3.25822 68.9599C3.36837 69.7115 3.72087 70.4827 4.06161 71.2286C4.20407 71.5408 4.43907 71.8109 4.68728 72.0964C4.86206 72.2979 5.04418 72.5065 5.20134 72.7388C6.10754 74.0852 7.21348 75.2679 8.48833 76.2546C9.54141 77.0706 10.7487 77.636 12.1763 77.9831C12.3173 78.0167 12.47 78.0377 12.6316 78.0601C12.9826 78.1077 13.3792 78.1637 13.7449 78.3736L14.0313 78.5388L13.9402 78.8453C13.9211 78.9097 13.8947 78.9657 13.8653 79.016C14.4293 79.0888 14.9904 79.1252 15.5661 79.1252C15.948 79.1252 16.3298 79.1098 16.7161 79.0776C16.6177 79.0356 16.5178 78.9922 16.418 78.9475L15.0961 78.3526L16.5428 78.1511C18.3552 77.8992 20.0222 77.163 21.6246 75.9061C21.4336 75.7508 21.2603 75.5632 21.0856 75.3309L20.8417 75.0034L21.1751 74.757C21.6025 74.4407 21.9374 74.0628 22.3105 73.5926C23.0874 72.6143 23.6485 71.4666 23.9819 70.1817C24.1508 69.5295 24.3021 68.8577 24.4489 68.2083L24.5664 67.6932C24.6663 67.2566 24.7632 66.8185 24.8616 66.3804C24.9865 65.8192 25.1113 65.2579 25.242 64.6967C25.3243 64.3412 25.4109 63.9871 25.4976 63.633C25.618 63.1417 25.7429 62.6323 25.8516 62.1326C25.9588 61.64 26.2452 61.4174 26.4655 61.3194C26.6549 61.2341 26.8062 61.0871 26.9648 60.9304C27.0089 60.887 27.0544 60.8436 27.1 60.8002L27.2615 60.1172C27.4011 59.535 27.5362 58.9639 27.6684 58.3915C27.8593 57.5629 28.0473 56.7343 28.2353 55.9058L28.5232 54.6391C28.7552 53.6244 28.9843 52.7119 29.447 51.8357L29.5689 51.6048L31.252 51.602L32.9484 55.6539L32.7971 55.8428C32.6958 55.9702 32.6796 56.1073 32.8662 56.5398C33.1731 57.2522 33.4713 57.98 33.7577 58.6854C34.025 59.3404 34.3011 60.0164 34.5831 60.677C34.7784 61.1347 34.8034 61.5378 34.6536 61.9045C34.6918 61.9983 34.7226 62.0892 34.7505 62.1718C34.7828 62.267 34.8166 62.3636 34.8504 62.4349C35.0604 62.4391 35.2352 62.5231 35.3689 62.6855L35.4085 62.7331L35.432 62.789C35.6729 63.3643 35.9123 63.9507 36.1532 64.5441C36.5189 65.4413 36.8949 66.365 37.2929 67.2888L37.5029 67.1082L37.7732 67.5631C38.0728 68.0697 38.2549 68.6128 38.4297 69.1376C38.5296 69.4358 38.625 69.7227 38.7396 70.0012L39.023 69.7647L39.2669 70.2923C39.3359 70.4449 39.402 70.5988 39.4695 70.75C39.7648 71.4246 40.0438 72.0628 40.4433 72.6478C40.5226 72.764 40.6328 72.869 40.7517 72.9823C40.8913 73.1167 41.0499 73.2679 41.1806 73.4624C41.6286 74.1258 42.0897 74.6731 42.5935 75.1377C43.0679 75.5744 43.648 75.9831 44.3633 76.3876C44.7819 76.6241 45.2534 76.918 45.5354 77.4107C45.5912 77.5087 45.6852 77.5689 45.8614 77.657C47.3331 78.3918 48.9913 78.62 50.5643 78.7557C50.5863 78.7571 50.6083 78.7585 50.6303 78.7585C50.7596 78.7585 50.9021 78.7277 51.0519 78.6941C51.2325 78.6549 51.4381 78.6088 51.6643 78.6088H51.7495C52.6278 78.6088 53.4518 78.3442 54.3256 78.0629C55.1599 77.7942 55.9471 77.4037 56.7197 76.8718C56.7006 76.8676 56.6829 76.8635 56.6639 76.8607C56.1645 76.7837 56.0015 76.445 56.0176 76.1553L56.0279 75.9523L56.2012 75.8347C57.5142 74.9432 58.7729 73.405 59.2106 72.214C58.9595 72.1538 58.6804 72.0278 58.4909 71.7017L58.3881 71.524L58.4704 71.3364C58.8581 70.4561 59.121 69.5071 59.2767 68.435C59.3913 67.6429 59.5881 66.8577 59.779 66.0977C59.8701 65.7366 59.9626 65.3629 60.0463 64.9962C60.3415 63.689 60.6661 62.3664 60.9804 61.0871C61.2242 60.0934 61.4769 59.0675 61.7133 58.0556C62.1084 56.3634 62.4917 54.6447 62.8633 52.982C63.0264 52.25 63.1894 51.5194 63.3539 50.793L63.3891 50.6377L63.5243 50.5439C63.9135 50.271 64.3012 50.236 64.5949 50.236C64.7345 50.236 64.8769 50.2458 65.015 50.2542C65.0811 50.2584 65.1487 50.2626 65.2192 50.2668L65.4982 50.2808L65.604 50.5285C66.3604 52.299 67.0976 54.1143 67.81 55.868C68.3138 57.108 68.8322 58.3831 69.358 59.6455C69.3639 59.6441 69.734 59.5853 69.734 59.5853L69.8633 59.9072C70.3509 61.1291 70.8679 62.3692 71.3672 63.5686C72.1442 65.4329 72.9476 67.3587 73.6702 69.2888H73.9536L74.0623 69.5589C75.4341 72.96 77.6298 75.2861 80.7744 76.6703L80.9168 76.7333L80.9859 76.8677C81.0725 77.0356 81.0813 77.191 81.0887 77.3043C81.0901 77.3183 81.0901 77.3337 81.0916 77.3491C81.1739 77.3785 81.2561 77.4093 81.3398 77.4387C81.682 77.5633 82.0345 77.6906 82.39 77.8082C82.531 77.8544 82.6911 77.8838 82.8614 77.9146C83.0524 77.9495 83.2506 77.9845 83.4445 78.0503C83.5561 78.0881 83.7059 78.0937 83.8646 78.1007C84.2024 78.1147 84.665 78.1329 85.0249 78.5066L85.063 78.5472L85.0895 78.5948C85.1835 78.7641 85.1864 78.9279 85.1894 79.0482C85.1894 79.065 85.1908 79.086 85.1908 79.107C85.5698 79.1336 85.9296 79.1462 86.2835 79.1462C87.3014 79.1462 88.2208 79.0384 89.0947 78.8159L89.6102 78.6843L89.641 79.1896Z" fill="#14152D"/>
</mask>
<g mask="url(#mask0_4174_1235)">
<rect width="148" height="82" fill="white"/>
</g>
</svg>
